<svg width="52" height="11" viewBox="0 0 52 11" fill="none" xmlns="http://www.w3.org/2000/svg">
<path d="M0.19 0.298C0.544667 0.214 0.927333 0.158 1.338 0.129999C1.74867 0.102 2.15467 0.0879999 2.556 0.0879999C2.98533 0.0879999 3.41933 0.13 3.858 0.213999C4.306 0.297999 4.712 0.451999 5.076 0.676C5.44 0.9 5.734 1.208 5.958 1.6C6.19133 1.992 6.308 2.49133 6.308 3.098C6.308 3.69533 6.20067 4.19933 5.986 4.61C5.77133 5.02067 5.48667 5.35667 5.132 5.618C4.77733 5.87 4.37133 6.052 3.914 6.164C3.45667 6.276 2.98533 6.332 2.5 6.332C2.45333 6.332 2.374 6.332 2.262 6.332C2.15933 6.332 2.04733 6.332 1.926 6.332C1.814 6.32267 1.702 6.31333 1.59 6.304C1.478 6.29467 1.39867 6.28533 1.352 6.276V10H0.19V0.298ZM2.584 1.096C2.34133 1.096 2.108 1.10067 1.884 1.11C1.66 1.11933 1.48267 1.14267 1.352 1.18V5.24C1.39867 5.25867 1.47333 5.27267 1.576 5.282C1.67867 5.282 1.786 5.28667 1.898 5.296C2.01 5.296 2.11733 5.296 2.22 5.296C2.32267 5.296 2.39733 5.296 2.444 5.296C2.76133 5.296 3.074 5.268 3.382 5.212C3.69933 5.14667 3.984 5.03467 4.236 4.876C4.488 4.71733 4.68867 4.49333 4.838 4.204C4.99667 3.91467 5.076 3.546 5.076 3.098C5.076 2.71533 5.00133 2.398 4.852 2.146C4.712 1.88467 4.52067 1.67933 4.278 1.53C4.04467 1.37133 3.77867 1.25933 3.48 1.194C3.18133 1.12867 2.88267 1.096 2.584 1.096ZM10.7101 4.078C10.4301 3.98467 10.1641 3.938 9.91213 3.938C9.51079 3.938 9.19346 4.05 8.96013 4.274C8.72679 4.48867 8.58213 4.764 8.52613 5.1V10H7.40613V3H8.19013L8.40013 3.854H8.45613C8.63346 3.53667 8.84346 3.294 9.08613 3.126C9.33813 2.94867 9.65546 2.86 10.0381 2.86C10.3088 2.86 10.6121 2.90667 10.9481 3L10.7101 4.078ZM17.2739 9.44C16.9939 9.664 16.6393 9.84133 16.2099 9.972C15.7899 10.1027 15.3419 10.168 14.8659 10.168C14.3339 10.168 13.8719 10.084 13.4799 9.916C13.0879 9.73867 12.7659 9.49133 12.5139 9.174C12.2619 8.84733 12.0753 8.46 11.9539 8.012C11.8326 7.564 11.7719 7.06 11.7719 6.5C11.7719 5.30533 12.0379 4.39533 12.5699 3.77C13.1019 3.14467 13.8626 2.832 14.8519 2.832C15.1693 2.832 15.4866 2.86933 15.8039 2.944C16.1213 3.00933 16.4059 3.14 16.6579 3.336C16.9099 3.532 17.1153 3.812 17.2739 4.176C17.4326 4.53067 17.5119 5.002 17.5119 5.59C17.5119 5.898 17.4839 6.23867 17.4279 6.612H12.9339C12.9339 7.02267 12.9759 7.38667 13.0599 7.704C13.1439 8.02133 13.2746 8.292 13.4519 8.516C13.6293 8.73067 13.8579 8.89867 14.1379 9.02C14.4273 9.132 14.7773 9.188 15.1879 9.188C15.5053 9.188 15.8226 9.132 16.1399 9.02C16.4573 8.908 16.6953 8.77733 16.8539 8.628L17.2739 9.44ZM14.8659 3.812C14.3153 3.812 13.8719 3.95667 13.5359 4.246C13.2093 4.53533 13.0133 5.03 12.9479 5.73H16.4199C16.4199 5.02067 16.2846 4.526 16.0139 4.246C15.7433 3.95667 15.3606 3.812 14.8659 3.812ZM23.3753 10V6.038C23.3753 5.66467 23.3566 5.34267 23.3193 5.072C23.2913 4.792 23.2306 4.55867 23.1373 4.372C23.044 4.18533 22.9086 4.04533 22.7313 3.952C22.5633 3.85867 22.3393 3.812 22.0593 3.812C21.63 3.812 21.2706 3.94267 20.9813 4.204C20.7013 4.46533 20.5053 4.792 20.3933 5.184V10H19.2733V3H20.0573L20.2673 3.854H20.3233C20.5753 3.55533 20.8646 3.31267 21.1913 3.126C21.5273 2.93 21.9613 2.832 22.4933 2.832C22.9413 2.832 23.3053 2.92067 23.5853 3.098C23.8746 3.266 24.0986 3.56467 24.2573 3.994C24.472 3.63 24.766 3.34533 25.1393 3.14C25.522 2.93467 25.9513 2.832 26.4273 2.832C26.8193 2.832 27.1506 2.87867 27.4213 2.972C27.692 3.056 27.916 3.21 28.0933 3.434C28.2706 3.658 28.3966 3.96133 28.4713 4.344C28.5553 4.72667 28.5973 5.212 28.5973 5.8V10H27.4773V5.786C27.4773 5.45 27.4586 5.16067 27.4213 4.918C27.3933 4.666 27.328 4.46067 27.2253 4.302C27.132 4.134 26.9966 4.01267 26.8193 3.938C26.6513 3.854 26.4273 3.812 26.1473 3.812C25.6806 3.812 25.3166 3.94267 25.0553 4.204C24.794 4.46533 24.6073 4.83867 24.4953 5.324V10H23.3753ZM30.8726 3H31.9926V10H30.8726V3ZM30.6346 0.872C30.6346 0.657333 30.7046 0.475333 30.8446 0.325999C30.994 0.167333 31.1806 0.0879999 31.4046 0.0879999C31.6286 0.0879999 31.82 0.167333 31.9786 0.325999C32.1373 0.475333 32.2166 0.657333 32.2166 0.872C32.2166 1.08667 32.1373 1.264 31.9786 1.404C31.82 1.544 31.6286 1.614 31.4046 1.614C31.1806 1.614 30.994 1.544 30.8446 1.404C30.7046 1.264 30.6346 1.08667 30.6346 0.872ZM35.3887 3V6.99C35.3887 7.354 35.4074 7.676 35.4447 7.956C35.4914 8.22667 35.5661 8.45533 35.6687 8.642C35.7714 8.81933 35.9114 8.95467 36.0887 9.048C36.2661 9.14133 36.4901 9.188 36.7607 9.188C37.0127 9.188 37.2367 9.15067 37.4327 9.076C37.6287 8.992 37.8014 8.88 37.9507 8.74C38.1094 8.6 38.2447 8.44133 38.3567 8.264C38.4781 8.07733 38.5761 7.88133 38.6507 7.676V3H39.7707V8.012C39.7707 8.348 39.7801 8.698 39.7987 9.062C39.8267 9.41667 39.8687 9.72933 39.9247 10H39.1547L38.8747 8.894H38.8047C38.5901 9.258 38.3007 9.56133 37.9367 9.804C37.5727 10.0467 37.1107 10.168 36.5507 10.168C36.1774 10.168 35.8461 10.1213 35.5567 10.028C35.2767 9.944 35.0387 9.79 34.8427 9.566C34.6561 9.342 34.5114 9.04333 34.4087 8.67C34.3154 8.28733 34.2687 7.80667 34.2687 7.228V3H35.3887ZM46.0296 10V6.038C46.0296 5.66467 46.0109 5.34267 45.9736 5.072C45.9456 4.792 45.8849 4.55867 45.7916 4.372C45.6983 4.18533 45.5629 4.04533 45.3856 3.952C45.2176 3.85867 44.9936 3.812 44.7136 3.812C44.2843 3.812 43.9249 3.94267 43.6356 4.204C43.3556 4.46533 43.1596 4.792 43.0476 5.184V10H41.9276V3H42.7116L42.9216 3.854H42.9776C43.2296 3.55533 43.5189 3.31267 43.8456 3.126C44.1816 2.93 44.6156 2.832 45.1476 2.832C45.5956 2.832 45.9596 2.92067 46.2396 3.098C46.5289 3.266 46.7529 3.56467 46.9116 3.994C47.1263 3.63 47.4203 3.34533 47.7936 3.14C48.1763 2.93467 48.6056 2.832 49.0816 2.832C49.4736 2.832 49.8049 2.87867 50.0756 2.972C50.3463 3.056 50.5703 3.21 50.7476 3.434C50.9249 3.658 51.0509 3.96133 51.1256 4.344C51.2096 4.72667 51.2516 5.212 51.2516 5.8V10H50.1316V5.786C50.1316 5.45 50.1129 5.16067 50.0756 4.918C50.0476 4.666 49.9823 4.46067 49.8796 4.302C49.7863 4.134 49.6509 4.01267 49.4736 3.938C49.3056 3.854 49.0816 3.812 48.8016 3.812C48.3349 3.812 47.9709 3.94267 47.7096 4.204C47.4483 4.46533 47.2616 4.83867 47.1496 5.324V10H46.0296Z" fill="white"/>
</svg>
