<svg width="13" height="14" viewBox="0 0 13 14" fill="none" xmlns="http://www.w3.org/2000/svg">
<path d="M0.223131 6.96186C0.103868 3.7604 2.85429 0.801866 5.99753 0.763482C7.59955 0.624172 9.15814 1.25845 10.3705 2.29295C9.87319 2.85046 9.36718 3.40152 8.82667 3.91743C7.75936 3.25631 6.47432 2.75248 5.22692 3.19994C3.21498 3.78402 1.99655 6.20599 2.74109 8.2127C3.35768 10.3085 5.85799 11.4587 7.81754 10.5783C8.8322 10.2079 9.50118 9.25337 9.79473 8.22774C8.63185 8.20411 7.4687 8.21888 6.30582 8.18613C6.30293 7.48072 6.30003 6.77799 6.30293 6.07258C8.2422 6.06963 10.1844 6.06372 12.1266 6.08144C12.2458 7.8098 11.9957 9.65949 10.8936 11.0467C9.38455 13.0268 6.59648 13.608 4.32837 12.8312C1.92125 12.0251 0.170739 9.55266 0.223131 6.96186Z" fill="white"/>
</svg>
