<svg width="13" height="16" viewBox="0 0 13 16" fill="none" xmlns="http://www.w3.org/2000/svg">
<path d="M10.8089 1.80026C9.75561 0.773661 8.29803 0.208252 6.70463 0.208252C4.27063 0.208252 2.77362 1.22127 1.94639 2.07104C0.926898 3.11828 0.342285 4.5088 0.342285 5.88615C0.342285 7.6155 1.05472 8.94284 2.24778 9.43664C2.32788 9.46996 2.40847 9.48675 2.48748 9.48675C2.73917 9.48675 2.9386 9.31954 3.00769 9.05132C3.04796 8.89744 3.14128 8.51783 3.18185 8.35302C3.26871 8.02758 3.19853 7.87104 3.00912 7.64441C2.66406 7.22987 2.50337 6.73967 2.50337 6.10171C2.50337 4.20676 3.8931 2.1928 6.46883 2.1928C8.51256 2.1928 9.78211 3.37217 9.78211 5.27063C9.78211 6.46864 9.52795 7.57812 9.06632 8.39481C8.74554 8.96228 8.18146 9.63872 7.3155 9.63872C6.94102 9.63872 6.60464 9.48254 6.39238 9.21026C6.19187 8.95286 6.12579 8.62035 6.20643 8.2738C6.29753 7.88227 6.42175 7.47384 6.54197 7.079C6.76123 6.35786 6.96851 5.67675 6.96851 5.13334C6.96851 4.20385 6.40571 3.57931 5.56817 3.57931C4.50377 3.57931 3.66988 4.67696 3.66988 6.07821C3.66988 6.76543 3.84977 7.27943 3.9312 7.4768C3.79711 8.05363 3.00019 11.483 2.84902 12.1297C2.76162 12.5072 2.2351 15.4888 3.10659 15.7266C4.08576 15.9937 4.961 13.0898 5.05008 12.7617C5.12228 12.4948 5.37491 11.4857 5.52973 10.8653C6.00241 11.3276 6.7635 11.6402 7.50407 11.6402C8.90016 11.6402 10.1557 11.0023 11.0394 9.84416C11.8965 8.72086 12.3686 7.15521 12.3686 5.43583C12.3686 4.09166 11.8 2.76652 10.8089 1.80026Z" fill="white"/>
</svg>
