<svg width="16" height="14" viewBox="0 0 16 14" fill="none" xmlns="http://www.w3.org/2000/svg">
<path d="M15.7917 2.1344C15.2185 2.39029 14.6019 2.56336 13.9553 2.64066C14.6155 2.24242 15.1221 1.61231 15.3613 0.860244C14.7435 1.22919 14.059 1.49684 13.3311 1.64111C12.7479 1.01579 11.9169 0.625 10.9968 0.625C9.23149 0.625 7.79971 2.06647 7.79971 3.84377C7.79971 4.09605 7.82809 4.34162 7.88293 4.57734C5.22586 4.44316 2.86993 3.1618 1.29295 1.21383C1.0178 1.68912 0.859958 2.24242 0.859958 2.83222C0.859958 3.94867 1.4248 4.93429 2.2822 5.51136C1.75836 5.4948 1.26505 5.35005 0.834208 5.10832C0.83397 5.12201 0.83397 5.13569 0.83397 5.14913C0.83397 6.70871 1.93647 8.00951 3.39877 8.30501C3.13077 8.37894 2.84775 8.41807 2.55663 8.41807C2.35015 8.41807 2.15011 8.39814 1.95507 8.3607C2.36183 9.63918 3.5423 10.5698 4.94165 10.596C3.84725 11.4594 2.46889 11.9739 0.97059 11.9739C0.713085 11.9739 0.457965 11.9587 0.208328 11.9287C1.62246 12.8423 3.30339 13.375 5.10879 13.375C10.9894 13.375 14.2054 8.4704 14.2054 4.21656C14.2054 4.07709 14.2023 3.9381 14.1961 3.80032C14.8212 3.34663 15.3632 2.77989 15.7917 2.1344Z" fill="white"/>
</svg>
